<svg width="479" height="398" viewBox="0 0 479 398" fill="none" xmlns="http://www.w3.org/2000/svg">
<path d="M298.176 184.311C290.771 176.905 286.946 225.785 298.176 224.921C309.505 224.049 304.223 190.36 298.176 184.311Z" fill="#444444"/>
<path d="M191.054 184.311C184.159 192.194 179.824 225.785 191.054 224.921C202.384 224.049 197.102 177.399 191.054 184.311Z" fill="#444444"/>
<path d="M241.16 369.434C246.631 375.121 265.003 386.668 294.721 387.36C331.868 388.224 337.915 384.768 350.873 389.088C351.161 384.161 348.281 373.106 334.459 368.305C288.75 364.915 255.616 335.455 244.292 320.993C246.628 327.75 249.542 350.393 241.16 369.434Z" fill="#EBFFAE"/>
<path d="M242.887 319.123C239.732 323.364 236.414 327.557 232.846 331.607C215.138 351.706 191.268 368.259 150.452 369.434C144.405 372.241 131.792 381.484 129.719 396C163.41 394.994 232.866 388.272 241.16 369.434C249.542 350.393 246.628 327.75 244.292 320.993C243.779 320.337 243.31 319.713 242.887 319.123Z" fill="#EBFFAE"/>
<path d="M271.396 267.259C262.757 257.754 244.615 251.706 218.699 266.395C222.475 270.171 226.07 275.355 229.635 280.493C236.671 290.637 243.586 300.605 251.526 299.228C256.95 287.205 264.037 274.853 271.396 267.259Z" fill="url(#paint0_radial_33_117)"/>
<path fillRule="evenodd" clipRule="evenodd" d="M242.887 319.123C243.31 319.713 243.779 320.337 244.292 320.993C243.739 319.393 243.218 318.684 242.887 319.123Z" fill="#FFCDAE"/>
<path fillRule="evenodd" clipRule="evenodd" d="M472.681 224.921C469.225 156.662 307.679 28.7851 191.918 2C186.684 60.3378 123.063 115.18 40.6142 186.252C27.8139 197.286 14.5599 208.711 1 220.601C39.1794 210.639 46.2594 215.034 56.716 221.524C57.143 221.789 57.5757 222.058 58.0163 222.329C72.2943 231.117 39.3176 242.886 20.1593 249.723C12.0126 252.631 6.36459 254.647 7.91107 255.162C11.5086 256.362 14.7152 264.765 19.177 276.458C30.0965 305.075 48.5339 353.394 98.6189 364.031C118.489 368.25 135.593 369.861 150.452 369.434C191.268 368.259 215.138 351.706 232.846 331.607C236.414 327.557 239.732 323.364 242.887 319.123C246.343 313.053 248.326 306.322 251.526 299.228C243.586 300.605 236.671 290.637 229.635 280.493C226.07 275.355 222.475 270.171 218.699 266.395C244.615 251.706 262.757 257.754 271.396 267.259C264.037 274.853 256.95 287.205 251.526 299.228C248.326 306.322 246.343 313.053 242.887 319.123C243.218 318.684 243.739 319.393 244.292 320.993C255.616 335.455 288.75 364.915 334.459 368.305C347.35 369.261 361.241 368.143 375.926 364.031C422.706 350.93 442.175 313.602 456.838 285.487C463.838 272.067 469.743 260.746 477 255.162C471.875 244.91 454.596 242.449 440.627 240.46C428.696 238.761 419.179 237.406 421.711 231.833C426.031 222.329 444.172 211.961 472.681 224.921ZM191.054 184.311C184.159 192.194 179.824 225.785 191.054 224.921C202.384 224.049 197.102 177.399 191.054 184.311ZM298.176 184.311C290.771 176.905 286.946 225.785 298.176 224.921C309.505 224.049 304.223 190.36 298.176 184.311Z" fill="url(#paint1_radial_33_117)"/>
<path d="M242.887 319.123C239.732 323.364 236.414 327.557 232.846 331.607C215.138 351.706 191.268 368.259 150.452 369.434M242.887 319.123C246.343 313.053 248.326 306.322 251.526 299.228M242.887 319.123C243.31 319.713 243.779 320.337 244.292 320.993M242.887 319.123C243.218 318.684 243.739 319.393 244.292 320.993M251.526 299.228C256.95 287.205 264.037 274.853 271.396 267.259C262.757 257.754 244.615 251.706 218.699 266.395C222.475 270.171 226.07 275.355 229.635 280.493C236.671 290.637 243.586 300.605 251.526 299.228ZM150.452 369.434C135.593 369.861 118.489 368.25 98.6189 364.031C48.5339 353.394 30.0965 305.075 19.177 276.458C14.7152 264.765 11.5086 256.362 7.91107 255.162C6.36459 254.647 12.0126 252.631 20.1593 249.723C39.3176 242.886 72.2943 231.117 58.0163 222.329C57.5757 222.058 57.143 221.789 56.716 221.524C46.2594 215.034 39.1794 210.639 1 220.601C14.5599 208.711 27.8139 197.286 40.6142 186.252C123.063 115.18 186.684 60.3378 191.918 2C307.679 28.7851 469.225 156.662 472.681 224.921C444.172 211.961 426.031 222.329 421.711 231.833C419.179 237.406 428.696 238.761 440.627 240.46C454.596 242.449 471.875 244.91 477 255.162C469.743 260.746 463.838 272.067 456.838 285.487C442.175 313.602 422.706 350.93 375.926 364.031C361.241 368.143 347.35 369.261 334.459 368.305M150.452 369.434C144.405 372.241 131.792 381.484 129.719 396C163.41 394.994 232.866 388.272 241.16 369.434M241.16 369.434C246.631 375.121 265.003 386.668 294.721 387.36C331.868 388.224 337.915 384.768 350.873 389.088C351.161 384.161 348.281 373.106 334.459 368.305M241.16 369.434C249.542 350.393 246.628 327.75 244.292 320.993M334.459 368.305C288.75 364.915 255.616 335.455 244.292 320.993M191.054 184.311C184.159 192.194 179.824 225.785 191.054 224.921C202.384 224.049 197.102 177.399 191.054 184.311ZM298.176 184.311C290.771 176.905 286.946 225.785 298.176 224.921C309.505 224.049 304.223 190.36 298.176 184.311Z" stroke="#BC6D58" strokeWidth="2"/>
<defs>
<radialGradient id="paint0_radial_33_117" cx="0" cy="0" r="1" gradientUnits="userSpaceOnUse" gradientTransform="translate(239 199) rotate(90) scale(197 238)">
<stop offset="0.149038" stopColor="#FF737E"/>
<stop offset="0.418269" stopColor="#FFAB77"/>
</radialGradient>
<radialGradient id="paint1_radial_33_117" cx="0" cy="0" r="1" gradientUnits="userSpaceOnUse" gradientTransform="translate(239 199) rotate(90) scale(197 238)">
<stop stopColor="#FFDEC9"/>
<stop offset="0.692308" stopColor="#FFCDAE"/>
<stop offset="1" stopColor="#FFB6BC"/>
</radialGradient>
</defs>
</svg>
